<?xml version="1.0" encoding="UTF-8" standalone="no"?>
<svg
   xmlns:dc="http://purl.org/dc/elements/1.1/"
   xmlns:cc="http://creativecommons.org/ns#"
   xmlns:rdf="http://www.w3.org/1999/02/22-rdf-syntax-ns#"
   xmlns:svg="http://www.w3.org/2000/svg"
   xmlns="http://www.w3.org/2000/svg"
   id="svg878"
   xml:space="preserve"
   viewBox="0 0 128 128"
   height="64px"
   width="64px"
   version="1.0"><metadata
     id="metadata884"><rdf:RDF><cc:Work
         rdf:about=""><dc:format>image/svg+xml</dc:format><dc:type
           rdf:resource="http://purl.org/dc/dcmitype/StillImage" /><dc:title></dc:title></cc:Work></rdf:RDF></metadata><defs
     id="defs882" /><path
     d="M 38.52,33.37 21.36,16.2 A 63.6,63.6 0 0 1 59.5,0.16 v 24.3 a 39.5,39.5 0 0 0 -20.98,8.92 z"
     id="path860"
     style="fill:#cdd9cc;fill-opacity:0.24583334;opacity:1" /><path
     d="m 67.6416,24.324239 0.0071,-24.27497629 A 63.6,63.6 0 0 1 105.95972,15.676323 L 88.777022,32.859017 A 39.5,39.5 0 0 0 67.634529,24.33131 Z"
     id="path862"
     style="fill:#cdd9cc;opacity:1;fill-opacity:0.24583334" /><path
     d="M 94.63,38.52 111.8,21.36 a 63.6,63.6 0 0 1 16.04,38.14 h -24.3 A 39.5,39.5 0 0 0 94.62,38.52 Z"
     id="path864"
     style="fill:#cdd9cc;opacity:1;fill-opacity:0.24583334" /><path
     d="m 103.67576,67.6416 24.27498,0.0071 A 63.6,63.6 0 0 1 112.32368,105.95972 L 95.140983,88.777022 a 39.5,39.5 0 0 0 8.527707,-21.142493 z"
     id="path866"
     style="fill:#cdd9cc;opacity:1;fill-opacity:0.24583334" /><path
     d="m 89.48,94.63 17.16,17.17 A 63.6,63.6 0 0 1 68.5,127.84 v -24.3 a 39.5,39.5 0 0 0 20.98,-8.92 z"
     id="path868"
     style="fill:#cdd9cc;opacity:1;fill-opacity:0.24583334" /><path
     d="m 60.3584,103.67576 -0.0071,24.27498 A 63.6,63.6 0 0 1 22.040284,112.32368 L 39.222978,95.140983 a 39.5,39.5 0 0 0 21.142493,8.527707 z"
     id="path870"
     style="fill:#cdd9cc;opacity:1;fill-opacity:0.24583334" /><path
     d="M 33.37,89.48 16.2,106.64 A 63.6,63.6 0 0 1 0.16,68.5 h 24.3 a 39.5,39.5 0 0 0 8.92,20.98 z"
     id="path872"
     style="fill:#cdd9cc;opacity:1;fill-opacity:0.24583334" /><path
     d="M 24.324239,60.3584 0.04926271,60.351329 A 63.6,63.6 0 0 1 15.676323,22.040284 L 32.859017,39.222978 A 39.5,39.5 0 0 0 24.33131,60.365471 Z"
     id="path874"
     style="fill:#cdd9cc;opacity:1;fill-opacity:0.24583334" /><g
     transform="matrix(0.44355332,0,0,0.44355332,-2.8271465e-4,-1.5335583e-5)"
     id="g1031"><g
       id="g975"><path
         style="fill:#366732"
         d="M 283.127,57.184 260.256,35.053 c -7.101,-6.874 -18.438,-6.683 -25.311,0.424 L 113.442,161.085 c -6.88,7.107 -19.404,8.879 -27.985,3.962 L 42.633,140.505 c -8.568,-4.917 -19.512,-1.951 -24.428,6.629 l -15.83,27.615 c -4.917,8.58 -1.951,19.518 6.623,24.434 0,0 103.889,59.46 103.931,59.376 0.048,-0.084 137.25,-141.57 170.617,-176.058 6.873,-7.112 6.682,-18.449 -0.419,-25.317 z"
         id="path973" /></g><g
       id="g977" /><g
       id="g979" /><g
       id="g981" /><g
       id="g983" /><g
       id="g985" /><g
       id="g987" /><g
       id="g989" /><g
       id="g991" /><g
       id="g993" /><g
       id="g995" /><g
       id="g997" /><g
       id="g999" /><g
       id="g1001" /><g
       id="g1003" /><g
       id="g1005" /></g></svg>